<svg viewBox="0 0 1200 360" width="1200" height="360" xmlns="http://www.w3.org/2000/svg">
<defs>
<linearGradient id="bg" x1="0" y1="0" x2="1200" y2="360" gradientUnits="userSpaceOnUse">
<stop offset="0" stop-color="#0a0e1a"/>
<stop offset="0.55" stop-color="#12172b"/>
<stop offset="1" stop-color="#1a1030"/>
</linearGradient>
<linearGradient id="wave" x1="0" y1="0" x2="0" y2="1">
<stop offset="0" stop-color="#39e6d0"/>
<stop offset="1" stop-color="#7a3ff2"/>
</linearGradient>
<linearGradient id="keyGrad" x1="0" y1="0" x2="1" y2="1">
<stop offset="0" stop-color="#ffd76a"/>
<stop offset="1" stop-color="#ff9a3d"/>
</linearGradient>
<radialGradient id="glow" cx="0.5" cy="0.5" r="0.5">
<stop offset="0" stop-color="#39e6d0" stop-opacity="0.35"/>
<stop offset="1" stop-color="#39e6d0" stop-opacity="0"/>
</radialGradient>
<linearGradient id="txtGlow" x1="0" y1="0" x2="1" y2="0">
<stop offset="0" stop-color="#ffffff"/>
<stop offset="1" stop-color="#d6f7f0"/>
</linearGradient>
</defs>

<rect x="0" y="0" width="1200" height="360" fill="url(#bg)"/>

<circle cx="980" cy="90" r="220" fill="url(#glow)"/>
<circle cx="1120" cy="280" r="140" fill="url(#glow)"/>

<g opacity="0.18" stroke="#39e6d0" stroke-width="1">
<line x1="700" y1="0" x2="700" y2="360"/>
<line x1="760" y1="0" x2="760" y2="360"/>
<line x1="820" y1="0" x2="820" y2="360"/>
<line x1="880" y1="0" x2="880" y2="360"/>
<line x1="940" y1="0" x2="940" y2="360"/>
<line x1="1000" y1="0" x2="1000" y2="360"/>
<line x1="1060" y1="0" x2="1060" y2="360"/>
<line x1="1120" y1="0" x2="1120" y2="360"/>
</g>

<g opacity="0.9">
<rect x="730" y="200" width="10" height="60" fill="url(#wave)"/>
<rect x="748" y="160" width="10" height="100" fill="url(#wave)"/>
<rect x="766" y="220" width="10" height="40" fill="url(#wave)"/>
<rect x="784" y="130" width="10" height="130" fill="url(#wave)"/>
<rect x="802" y="180" width="10" height="80" fill="url(#wave)"/>
<rect x="820" y="100" width="10" height="160" fill="url(#wave)"/>
<rect x="838" y="150" width="10" height="110" fill="url(#wave)"/>
<rect x="856" y="205" width="10" height="55" fill="url(#wave)"/>
<rect x="874" y="120" width="10" height="140" fill="url(#wave)"/>
<rect x="892" y="170" width="10" height="90" fill="url(#wave)"/>
<rect x="910" y="140" width="10" height="120" fill="url(#wave)"/>
<rect x="928" y="195" width="10" height="65" fill="url(#wave)"/>
<rect x="946" y="110" width="10" height="150" fill="url(#wave)"/>
<rect x="964" y="185" width="10" height="75" fill="url(#wave)"/>
<rect x="982" y="145" width="10" height="115" fill="url(#wave)"/>
<rect x="1000" y="210" width="10" height="50" fill="url(#wave)"/>
<rect x="1018" y="160" width="10" height="100" fill="url(#wave)"/>
<rect x="1036" y="190" width="10" height="70" fill="url(#wave)"/>
</g>

<g transform="translate(1015,55) rotate(35)">
<circle cx="0" cy="0" r="24" fill="none" stroke="url(#keyGrad)" stroke-width="9"/>
<rect x="18" y="-6" width="70" height="12" fill="url(#keyGrad)"/>
<rect x="70" y="6" width="10" height="16" fill="url(#keyGrad)"/>
<rect x="86" y="6" width="10" height="20" fill="url(#keyGrad)"/>
</g>

<g opacity="0.85" stroke="#7a3ff2" stroke-width="2" fill="none">
<path d="M1000 300 h30 v-15 h20"/>
<circle cx="1055" cy="285" r="4" fill="#7a3ff2"/>
<path d="M1080 310 h-25 v-20 h-15"/>
<circle cx="1035" cy="290" r="4" fill="#39e6d0"/>
</g>

<text x="60" y="150" font-family="'Segoe UI', Arial, sans-serif" font-size="62" font-weight="700" fill="url(#txtGlow)" textLength="980" lengthAdjust="spacingAndGlyphs">
Avid Pro Tools Full Access +
</text>

<text x="60" y="210" font-family="'Segoe UI', Arial, sans-serif" fill="#a9c9c4" textLength="1080.0" lengthAdjust="spacingAndGlyphs" font-size="20.5">
Applies a lightweight license patch to unlock Pro Tools Full Access with a valid key.
</text>

<g opacity="0.7">
<line x1="60" y1="250" x2="380" y2="250" stroke="#39e6d0" stroke-width="2"/>
<circle cx="60" cy="250" r="4" fill="#39e6d0"/>
<circle cx="380" cy="250" r="4" fill="#7a3ff2"/>
</g>

<text x="60" y="285" font-family="'Segoe UI', Arial, sans-serif" font-size="18" fill="#6f8f8a" letter-spacing="2">
LICENSE PATCH • FULL ACCESS UNLOCK
</text>
</svg>